<svg xmlns="http://www.w3.org/2000/svg" viewBox="0 0 64 64">
  <defs>
    <linearGradient id="adp-g" x1="0" y1="0" x2="1" y2="1">
      <stop offset="0" stop-color="#1677ff"/>
      <stop offset="1" stop-color="#36cfc9"/>
    </linearGradient>
  </defs>
  <!-- 数据库柱体：数据平台 -->
  <path d="M12 16c0-5 8.5-8 19-8s19 3 19 8v32c0 5-8.5 8-19 8s-19-3-19-8V16z" fill="url(#adp-g)"/>
  <!-- 分层线：数据分层/流水线 -->
  <path d="M12 16c0 5 8.5 8 19 8s19-3 19-8" fill="none" stroke="#fff" stroke-width="3"/>
  <path d="M12 28c0 5 8.5 8 19 8s19-3 19-8" fill="none" stroke="#fff" stroke-width="3" opacity=".7"/>
  <path d="M12 40c0 5 8.5 8 19 8s19-3 19-8" fill="none" stroke="#fff" stroke-width="3" opacity=".45"/>
  <!-- AI 星火 -->
  <path d="M53 2l2.6 6.4L62 11l-6.4 2.6L53 20l-2.6-6.4L44 11l6.4-2.6z" fill="#fadb14"/>
</svg>
